PathFileType	4	(X/Y/Z)	41_2_97_p1_0-338.trc
DataRate	CameraRate	NumFrames	NumMarkers	Units	OrigDataRate	OrigDataStartFrame	OrigNumFrames
60.0	60.0	7	27	m	60.0	254	339
Frame#	Time	RHip			RKnee			RAnkle			RBigToe			RSmallToe			RHeel			LHip			LKnee			LAnkle			LBigToe			LSmallToe			LHeel			Neck			Head			Nose			RShoulder			RElbow			RWrist			RThumb			RIndex			RPinky			LShoulder			LElbow			LWrist			LThumb			LIndex			LPinky			
		X1	Y1	Z1	X2	Y2	Z2	X3	Y3	Z3	X4	Y4	Z4	X5	Y5	Z5	X6	Y6	Z6	X7	Y7	Z7	X8	Y8	Z8	X9	Y9	Z9	X10	Y10	Z10	X11	Y11	Z11	X12	Y12	Z12	X13	Y13	Z13	X14	Y14	Z14	X15	Y15	Z15	X16	Y16	Z16	X17	Y17	Z17	X18	Y18	Z18	X19	Y19	Z19	X20	Y20	Z20	X21	Y21	Z21	X22	Y22	Z22	X23	Y23	Z23	X24	Y24	Z24	X25	Y25	Z25	X26	Y26	Z26	X27	Y27	Z27	
254	4.233333333333333	0.333410920497614	0.4575079916060154	-0.14337727175724185	0.34691064129363036	0.5650418350835466	0.3094785387834004	0.36215233858353224	0.6346456991053623	0.7121857650110901	0.34289789706368984	0.5097753043352325	0.7485239872473516	0.4051533795170469	0.5342529054950179	0.754811413453493	0.3620141534918222	0.7496194986554101	0.8110858599248749	0.1419488490545568	0.4567463683440817	-0.1354414337369001	0.1570583553425216	0.5911385811715933	0.3086778827462007	0.1703441134776977	0.7103501366782103	0.7582778418695062	0.18543831534356636	0.5135601418888421	0.7421257053211215	0.13453488856501353	0.5673298943993578	0.7626032587449776	0.18588906805569158	0.7331822681266839	0.7988468260723177	0.21360424802995334	0.42959659700725084	-0.6878362159844633	0.2000111731343447	0.3940644041478376	-0.9390798188700018	0.18493297505111742	0.30608615197436595	-0.8183529278786422	0.35309063914175215	0.4370488928667141	-0.6108109648868034	0.3821464056789506	0.30384695183169724	-0.40399418662830855	0.2771432023092456	0.22407336591520408	-0.5806414717153638	0.20087583613383675	0.303354210420182	-0.6690556530338548	0.19105650947606248	0.2567416762880947	-0.6802721833478153	0.18661454963220644	0.17735156715220157	-0.6356689224191612	0.08670774549611902	0.4789774636994485	-0.6128608822369132	0.07328625546561163	0.332824822421843	-0.38207376134887067	0.14829790134127122	0.3086371832335425	-0.5326499949476146	0.1412295392558835	0.35503425029492747	-0.6386325949338452	0.1382939303516007	0.29005775435410147	-0.6735093653994566	0.13734651479894353	0.20857321697517361	-0.6353251464356502
255	4.25	0.3333795699365154	0.45763388747226885	-0.14342122326742676	0.3458198172559512	0.5635022639887776	0.30459365364755037	0.36214624227987213	0.634615168017568	0.7121929693683272	0.3414975958742969	0.5074367404192575	0.7431398819308023	0.40040636249190376	0.5321764432869304	0.7539358986347069	0.36204660143219997	0.7496891291580479	0.8111405777221774	0.14127798071729084	0.45562270230255963	-0.13952508347131667	0.15711747392107284	0.5912185785297982	0.30858163600565625	0.1692281665429864	0.708405656115137	0.7526287343553727	0.1854059015200702	0.513424871503092	0.741970458133544	0.13451641498824476	0.5672704922089071	0.7624966163624521	0.18596531922685738	0.7333882834182678	0.7988780323438285	0.21360191031250955	0.4295894271784988	-0.6878546292418266	0.20013937693244874	0.39428485201028834	-0.939181374602425	0.18497016951910036	0.30589339525349246	-0.8184887429871235	0.3523642556996837	0.4364325541943487	-0.6175416288102099	0.37835577242732954	0.3030226549623124	-0.40384695457943925	0.27669928255331894	0.2028936151533747	-0.582506900992836	0.20121453113474583	0.30390431356647285	-0.6747958646589673	0.19507503167703522	0.2505667426920196	-0.6837878017265436	0.1877987620299681	0.17808499367701966	-0.6370712816665052	0.08669543518704774	0.47858178183602423	-0.6128559201050973	0.07326475892867983	0.33288673495237947	-0.3820973566032634	0.1546331012685505	0.3072378510900555	-0.5296989215090915	0.1443243185231797	0.3440456152059327	-0.6397292904824194	0.13993013208886068	0.29943656362004806	-0.6728939867157455	0.1378937423715904	0.20459055480840702	-0.6353744826886866
256	4.266666666666667	0.3333325850076406	0.45790430359371953	-0.1433768014571114	0.3459238501520549	0.5638322156629647	0.3047857682899021	0.36212092302003523	0.6344859090072048	0.7122753968352104	0.33725557192474453	0.4961819614292722	0.737411200132051	0.4049258942484804	0.5340803182725274	0.7547499703066274	0.3571947596411358	0.7352079227641983	0.8040932068783425	0.14127949723566346	0.45588922961978307	-0.13954716450976484	0.15775143891058385	0.5910883440791279	0.30438312625874503	0.16921406188608953	0.7083282195513206	0.7526411747074429	0.18535993867327183	0.5136067650132641	0.7421314110204554	0.13448968505605152	0.5677265235155892	0.7628324113786809	0.18595804321034734	0.7333172186072603	0.7988722934458516	0.21330952090236793	0.4299171951025702	-0.6914573086590619	0.20382897074890557	0.405046271875727	-0.9400230740636154	0.1847351382632335	0.3051225049079468	-0.8215665638516642	0.3523705225272305	0.4363570433406201	-0.6176058227361926	0.37821638995171314	0.30284949598827354	-0.4037692872132474	0.2802450541127879	0.212546447314299	-0.5820528715177643	0.20395307817642486	0.3129351725443707	-0.6745062964855646	0.19987568142551018	0.24831263999265216	-0.6841244466813166	0.1911284707823183	0.1891041684437315	-0.6304300618257762	0.0864694678955228	0.4787064488655638	-0.6130481226264834	0.07321355137931358	0.33259667132576465	-0.3821420182674148	0.15474328971216522	0.30742041237919404	-0.5367384403191776	0.14477026238602766	0.3446058747046937	-0.6459828615316157	0.14067134563086642	0.29959472570440693	-0.6762317559752413	0.13425852353798798	0.20552643608106716	-0.6412880681277664
257	4.283333333333333	0.33328798987123026	0.45777935434765044	-0.14361831618586854	0.34296005348593217	0.5638679975844574	0.30912539506421055	0.36572040248987636	0.617250953389426	0.7082637592889091	0.3414274378359293	0.5077503595744179	0.7479297670705255	0.40441353596756696	0.5345799069749378	0.7553368696356544	0.36271858817478325	0.7480775324182788	0.8150687412849996	0.1413171418678238	0.45596126624070843	-0.13985919052160437	0.1614336800003454	0.6039657940670535	0.3089834973550385	0.17471884345201222	0.7127130921691791	0.7594033626228003	0.18534643013059826	0.5136247059371684	0.7421826539387026	0.13454186200455476	0.5679735633342324	0.7630791944084571	0.18596547061652996	0.7335105761585625	0.7990845535068274	0.21296578530833116	0.4288012871441074	-0.694799029739541	0.20390656708885468	0.4049897750468812	-0.9401432823667626	0.18772676217716008	0.3154918994518314	-0.8248150328613008	0.3523027910259981	0.43659737850681485	-0.6175706994665694	0.37803545432471497	0.3026905380290223	-0.4039486892233377	0.27934730414191034	0.21146827077720834	-0.585100973629247	0.20385064849022141	0.31235216846973374	-0.6745705810531974	0.20124486298020927	0.2563723172516935	-0.6878295133735376	0.1931043033368383	0.19675392265626052	-0.6336328701997336	0.08631029916685773	0.4779192547232059	-0.6135007175698214	0.07316181703500754	0.3324067631654716	-0.38235546463370423	0.1519041888395812	0.2972643994009109	-0.5376151900953442	0.14397948782023062	0.345218058949064	-0.6435398641191042	0.1401555217499836	0.3003339340760244	-0.6731935518210117	0.14896537755690178	0.2062867615652738	-0.6347638344826512
258	4.3	0.3300101699107241	0.47128133518733495	-0.14032652039129972	0.34291433654856973	0.5638069578755812	0.3091480278301777	0.36568367346493036	0.6171875364430083	0.7083757056273023	0.33701207341776396	0.4940604499185383	0.7410367899790237	0.4043039700987409	0.533807606402814	0.7551069101714856	0.3626571535866061	0.7480683180223481	0.8152036809944404	0.14130859268157236	0.45599839222616667	-0.13990915507676177	0.1577832856073573	0.5908401876309318	0.3042914540763588	0.17036412675462403	0.7104227904528339	0.7585508957399987	0.18547763481550447	0.513499381906164	0.7419951842538007	0.1337205569330054	0.5683599021302901	0.767065252570691	0.18504334957535676	0.733855049083966	0.8045703287021427	0.21334709194829848	0.429638861326722	-0.6915854397828911	0.20726940710223882	0.40581256942921035	-0.9405478945468819	0.18776511019886455	0.31530346181048974	-0.8219894860295335	0.35230926177722366	0.43644564686043236	-0.6175856349621076	0.37403319793775514	0.292474119252897	-0.40529188118355575	0.2792082357867557	0.21118918045729626	-0.5849953362562651	0.20370789613975654	0.31252754829722046	-0.6743679155205234	0.20072425520651907	0.25667147590106565	-0.6876296173684026	0.18875074574857895	0.18660165308976542	-0.6372108681186899	0.08530225492609074	0.4763485380885476	-0.6209018693485845	0.07286376295451208	0.3327476271549669	-0.3855188813061111	0.15453747073642266	0.3064571812077944	-0.5399405729196763	0.14417621940652814	0.34301542821803727	-0.6431691352613566	0.14499735424641355	0.30226622568232564	-0.6733078374290099	0.14579025609630075	0.20609980903750857	-0.6341451309147978
259	4.316666666666666	0.33254559984677906	0.4565070922699269	-0.14790506381385918	0.34295448446556903	0.563822915426287	0.30912879068903454	0.3656897818323706	0.6171322980617691	0.7082502032857805	0.3413551356642133	0.5085500637822327	0.7439294615693293	0.40038541096136265	0.5332608917965764	0.7546541637528248	0.3626760816663955	0.7479814764410946	0.81505035128407	0.14133296430699668	0.4559986338477681	-0.13997911253763132	0.15781260882925086	0.5907368516815856	0.30425080116607184	0.17034831781132068	0.7104207790523243	0.7583697871804524	0.1854467162583963	0.5135161194654613	0.7419705299963288	0.1345847001066277	0.5676314108384518	0.7628045101082465	0.18599555089398465	0.7334487664682635	0.7990213891839764	0.21335715651645587	0.42958123055014136	-0.6916032523734547	0.20729402187616552	0.4057889087372161	-0.9405501239512506	0.1877261026256698	0.3153396320620177	-0.8218929162234959	0.3526033873028877	0.43613521708742065	-0.6141624483526054	0.3780468116385701	0.3023677490748508	-0.4038691892434639	0.27978834134898023	0.21219049650337393	-0.581587643405256	0.20964415603930142	0.3100317641326702	-0.6747837609707477	0.19647325660485762	0.25521342793019	-0.687555581186786	0.18889721730542527	0.1874671794305045	-0.6369153620514486	0.08523636784290206	0.47628436244075034	-0.6209501407481706	0.06946248797947678	0.33158385350451686	-0.385552826679829	0.15448665882840246	0.3062457750787354	-0.5398789298797024	0.148269314128222	0.3317244521027351	-0.6397322071766272	0.14529859091987837	0.3025645055625491	-0.6731872703560048	0.14566306664469603	0.20466028967124686	-0.6376279349400477
260	4.333333333333333	0.3333310198957053	0.45764772912112595	-0.14357349713233258	0.34288262751130705	0.5638291282740155	0.3092066144796394	0.365707939730975	0.6172174633119498	0.7083364065390219	0.34150178604800246	0.5068625731027633	0.747528349382798	0.4045743609723763	0.5343776162326062	0.755277068964011	0.36270658798444627	0.7481141074821072	0.8152402373683519	0.14131248746922526	0.45597406604387714	-0.13993611054487778	0.15782956786518051	0.5905361472436638	0.30412675392663824	0.17034841703005518	0.7103657730623029	0.7583308742725454	0.18535611849512482	0.513494532109607	0.7420395835960225	0.1344392324831825	0.5676673809118186	0.7628261704305421	0.18599884945470224	0.7334233264128437	0.7990138176961596	0.21331927789223817	0.4295366779168498	-0.6915336567524496	0.2073519372436959	0.40591658012582205	-0.9406507871631545	0.19184122554390992	0.31672136113361526	-0.822050992879725	0.3524691230281189	0.435913560789955	-0.6142231600907759	0.3780975635227831	0.30259872250252673	-0.4040002345908781	0.28346900924276947	0.2221498691931801	-0.5841755684688019	0.20971043831270894	0.3100637344767464	-0.6781192956165176	0.19934501809161764	0.24390596977022358	-0.6883781467850625	0.1946649826981501	0.20536424982670592	-0.6338341730860915	0.08549031558115054	0.477188339600091	-0.6174073893633582	0.06961905147381948	0.33113942236432536	-0.382306558944974	0.15509215315663308	0.3072457612107972	-0.5365928880297358	0.15314844565965688	0.33207093792525116	-0.6397681486389888	0.14548014911443052	0.30243641486456	-0.6733063398812721	0.1419039280492242	0.20427982134023787	-0.637404114003354
